<svg width="132" height="30" viewBox="0 0 132 30" xmlns="http://www.w3.org/2000/svg" xmlns:xlink="http://www.w3.org/1999/xlink"><title>Page 1</title><defs><path id="a" d="M132 30H0V0h132v30z"/></defs><g fill="none" fill-rule="evenodd"><mask id="b" fill="#fff"><use xlink:href="#a"/></mask><path d="M15.306 29.987L0 .32h4.046c2.605 5.212 11.428 22.804 11.428 22.804S24.323 5.482 26.902.32h4.045l-15.31 29.674-.33-.007zM46.58 3.129c-6.324 0-11.451 5.316-11.451 11.873 0 6.558 5.127 11.874 11.45 11.874 6.325 0 11.452-5.316 11.452-11.874 0-6.557-5.127-11.873-11.451-11.873zm0 26.871c-8.205 0-14.856-6.715-14.856-14.998S38.375.004 46.58.004c8.204 0 14.855 6.715 14.855 14.998S54.785 30 46.58 30zm34.721-.313H66.773V.317h3.4V26.25h11.128v3.437zm11.13-25.934H81.3V.317h14.53v29.37h-3.4V3.753zm11.9 0a1.71 1.71 0 0 1-1.7-1.718 1.71 1.71 0 0 1 1.7-1.718c.94 0 1.7.77 1.7 1.718a1.71 1.71 0 0 1-1.7 1.718zm23.623 25.928c-2.605-5.212-11.428-22.81-11.428-22.81s-8.849 17.648-11.428 22.81h-4.045L116.363 0l.33.007L132 29.681h-4.046z" fill="#FEFEFE" mask="url(#b)"/></g></svg>